WARNING: Contain nudity and Strong Sexual Content

Title: Natalie (2010)
Country: South Korea
Language: Korean
Film Genre: Melodrama | Romance
Subtitles: English(srt/idx,sub), Korean(smi/idx,sub)
Director: Joo Kyeong-joong
Cast: Lee Seong-jae, Kim Ji-hoon-I, Yeon-woo Hyeon-jin, Kim Gi-yeon-I
Info Link: http://www.hancinema.net/korean_movie_Natalie.php


Plot or synopsis
People who have build a wall around themselves. A sculptor Jun-hyeok, an art critic Min-woo, and a modern dance student Mi-ran. A mystery melodrama about the love and secrets of the three people.


General
Complete name : Natalie.2D.2010.DVDRip.x264.AC3-BAUM.mkv
Format : Matroska
File size : 1.36 GiB
Duration : 1h 29mn
Overall bit rate : 2 168 Kbps
Encoded date : UTC 2011-01-08 20:27:43
Writing application : mkvmerge v4.0.0 ('The Stars were mine') built on Jun 6 2010 16:18:42
Writing library : libebml v1.0.0 + libmatroska v1.0.0

Video #1
ID : 1
Format : AVC
Format/Info : Advanced Video Codec
Format profile : High@L4.1
Format settings, CABAC : Yes
Format settings, ReFrames : 3 frames
Muxing mode : Container profile=Unknown@4.1
Codec ID : V_MPEG4/ISO/AVC
Duration : 1h 29mn
Bit rate mode : Variable
Bit rate : 1 719 Kbps
Maximum bit rate : 14.0 Mbps
Width : 720 pixels
Height : 400 pixels
Display aspect ratio : 16:9
Frame rate : 23.976 fps
Color space : YUV
Chroma subsampling : 4:2:0
Bit depth : 8 bits
Scan type : Progressive
Bits/(Pixel*Frame) : 0.249
Stream size : 1.05 GiB (77%)
Writing library : x264 core 98 r1649 c54c47d

Audio #2
ID : 2
Format : AC-3
Format/Info : Audio Coding 3
Mode extension : CM (complete main)
Codec ID : A_AC3
Duration : 1h 29mn
Bit rate mode : Constant
Bit rate : 448 Kbps
Channel(s) : 6 channels
Channel positions : Front: L C R, Side: L R, LFE
Sampling rate : 48.0 KHz
Bit depth : 16 bits
Stream size : 287 MiB (21%)